HIERARCHY
ROOT joint_0
{
	OFFSET 0.000000 0.000000 0.000000
	CHANNELS 6 Xposition Yposition Zposition Zrotation Yrotation Xrotation 
	JOINT joint_1
	{
		OFFSET 11.612000 -0.419000 106.198000
		CHANNELS 3 Zrotation Yrotation Xrotation
		JOINT joint_2
		{
			OFFSET -1.708000 -1.022000 97.564090
			CHANNELS 3 Zrotation Yrotation Xrotation
			JOINT joint_3
			{
				OFFSET -4.121000 -1.538000 97.375000
				CHANNELS 3 Zrotation Yrotation Xrotation
				JOINT joint_4
				{
					OFFSET 5.442000 -2.123000 132.795900
					CHANNELS 3 Zrotation Yrotation Xrotation
					JOINT joint_5
					{
						OFFSET 21.935000 0.195000 82.975100
						CHANNELS 3 Zrotation Yrotation Xrotation
						End Site
						{
							OFFSET 0.000000 0.000000 0.000000
						}
					}
				}
				JOINT joint_6
				{
					OFFSET 4.262000 -30.048000 73.899900
					CHANNELS 3 Zrotation Yrotation Xrotation
					JOINT joint_7
					{
						OFFSET 9.731000 -136.810010 -21.963010
						CHANNELS 3 Zrotation Yrotation Xrotation
						JOINT joint_8
						{
							OFFSET 33.360000 -35.709000 -267.597900
							CHANNELS 3 Zrotation Yrotation Xrotation
							JOINT joint_9
							{
								OFFSET 36.156000 -29.759000 -240.558040
								CHANNELS 3 Zrotation Yrotation Xrotation
								End Site
								{
									OFFSET 0.000000 0.000000 0.000000
								}
							}
						}
					}
				}
				JOINT joint_10
				{
					OFFSET 2.027000 27.734000 74.914920
					CHANNELS 3 Zrotation Yrotation Xrotation
					JOINT joint_11
					{
						OFFSET -5.183000 136.784000 -23.604980
						CHANNELS 3 Zrotation Yrotation Xrotation
						JOINT joint_12
						{
							OFFSET 29.806000 37.229000 -267.809940
							CHANNELS 3 Zrotation Yrotation Xrotation
							JOINT joint_13
							{
								OFFSET 36.890000 46.524990 -237.772030
								CHANNELS 3 Zrotation Yrotation Xrotation
								End Site
								{
									OFFSET 0.000000 0.000000 0.000000
								}
							}
						}
					}
				}
			}
		}
	}
	JOINT joint_14
	{
		OFFSET -7.290000 -102.873990 -124.314940
		CHANNELS 3 Zrotation Yrotation Xrotation
		JOINT joint_15
		{
			OFFSET -15.466000 -19.909010 -438.533020
			CHANNELS 3 Zrotation Yrotation Xrotation
			JOINT joint_16
			{
				OFFSET -26.899000 -18.922000 -464.797000
				CHANNELS 3 Zrotation Yrotation Xrotation
				JOINT joint_17
				{
					OFFSET 179.329000 -12.011000 -84.174000
					CHANNELS 3 Zrotation Yrotation Xrotation
					End Site
					{
						OFFSET 0.000000 0.000000 0.000000
					}
				}
			}
		}
	}
	JOINT joint_18
	{
		OFFSET -6.225000 101.546000 -125.479980
		CHANNELS 3 Zrotation Yrotation Xrotation
		JOINT joint_19
		{
			OFFSET -13.973000 7.996000 -438.963010
			CHANNELS 3 Zrotation Yrotation Xrotation
			JOINT joint_20
			{
				OFFSET -44.294000 5.716000 -463.813970
				CHANNELS 3 Zrotation Yrotation Xrotation
				JOINT joint_21
				{
					OFFSET 178.505000 -4.689000 -85.139000
					CHANNELS 3 Zrotation Yrotation Xrotation
					End Site
					{
						OFFSET 0.000000 0.000000 0.000000
					}
				}
			}
		}
	}
}
MOTION
Frames: 10
Frame Time: 0.016667
-3455.922607 948.333862 1134.812988 9.735926 4.169418 1.426553 -1.800367 13.823028 1.709374 -0.442935 -2.328839 -0.481929 -0.167132 2.034053 0.155589 1.029866 -14.290952 -2.059548 0.000000 0.000000 0.000000 0.368046 10.055618 -9.960797 -3.791868 12.058743 3.631792 3.148132 -51.612208 4.652723 0.000000 0.000000 0.000000 4.754598 9.257728 0.415398 -0.179915 10.635478 17.462338 -11.551677 -78.558926 -19.094932 0.000000 0.000000 0.000000 -1.586844 2.950962 -0.174442 -1.448731 4.040603 -0.842350 -1.134108 -4.102476 -0.787761 0.000000 0.000000 0.000000 0.431655 -14.502192 4.586170 1.317120 29.272016 -5.166873 2.991484 -6.516905 1.132345 0.000000 0.000000 0.000000 
-3444.010254 949.685364 1137.336060 9.724272 4.401126 1.678775 -1.583272 13.393083 1.591989 -0.291292 -2.317743 -0.460176 -0.002000 2.038705 0.135448 1.089660 -13.929840 -2.190734 0.000000 0.000000 0.000000 -0.255753 11.822138 -10.881677 -4.327535 13.626153 3.245438 3.345033 -61.318406 6.718828 0.000000 0.000000 0.000000 4.693296 10.525641 0.239348 -0.721565 11.962776 17.913868 -11.982361 -86.753361 -17.201857 0.000000 0.000000 0.000000 -1.357826 2.997957 -0.435575 -1.239836 4.578169 -1.008127 -0.946267 -3.295531 -0.647203 0.000000 0.000000 0.000000 0.407937 -15.028595 4.429173 1.342869 29.016575 -4.988374 2.971368 -7.154044 1.109857 0.000000 0.000000 0.000000 
-3431.692139 951.245422 1139.776978 9.895728 4.602532 1.948447 -1.406660 12.967482 1.525367 -0.281980 -2.310430 -0.445702 0.016141 2.060481 0.132331 1.123982 -13.560448 -2.322650 0.000000 0.000000 0.000000 -1.477053 13.339396 -12.389634 -4.501945 14.902934 2.898751 3.609401 -70.952155 9.173769 0.000000 0.000000 0.000000 4.726077 11.440801 0.261963 -1.210563 12.878773 18.126878 167.580811 -86.400154 165.054526 0.000000 0.000000 0.000000 -1.257969 2.745694 -0.667146 -1.234875 5.754471 -1.156603 -0.908996 -2.528052 -0.577710 0.000000 0.000000 0.000000 0.978875 -15.012159 3.873046 2.010438 27.244271 -3.972456 3.693180 -7.542933 1.430949 0.000000 0.000000 0.000000 
-3418.972656 953.088989 1142.317017 10.160734 4.778253 2.247528 -1.233614 12.560874 1.494208 -0.369591 -2.320640 -0.419253 -0.075780 2.091584 0.124527 1.149646 -13.163212 -2.515681 0.000000 0.000000 0.000000 -3.239240 14.556990 -14.318354 -4.510777 15.938647 2.309891 3.924856 -80.987233 11.941143 0.000000 0.000000 0.000000 4.793126 12.101997 0.494021 -1.650376 13.522829 17.996050 167.107214 -80.381778 167.682219 0.000000 0.000000 0.000000 -1.255085 2.248815 -0.898283 -1.377927 7.423124 -1.315497 -0.968877 -1.649671 -0.544400 0.000000 0.000000 0.000000 2.122048 -14.363335 2.926435 3.250131 23.705950 -2.327117 4.865788 -7.635330 1.978076 0.000000 0.000000 0.000000 
-3405.619873 954.936768 1143.920044 10.469015 4.831761 2.464109 -1.082881 12.141360 1.522395 -0.493802 -2.330097 -0.419243 -0.217083 2.104415 0.096041 1.133594 -12.680878 -2.589783 0.000000 0.000000 0.000000 -4.926464 15.387135 -15.814991 -4.702172 16.541754 1.312325 -175.769990 -89.725329 -165.339864 0.000000 0.000000 0.000000 4.902022 12.334709 0.857961 -1.909766 13.751353 17.793343 166.595385 -75.337588 169.831080 0.000000 0.000000 0.000000 -1.208941 1.629215 -1.153007 -1.507554 9.690827 -1.302990 -0.913348 -1.066104 -0.478685 0.000000 0.000000 0.000000 3.118905 -13.308013 2.167364 4.272234 19.732389 -1.035438 5.579136 -7.111813 2.343338 0.000000 0.000000 0.000000 
-3391.225342 956.613159 1143.962036 10.880893 4.718250 2.648117 -0.963860 11.568772 1.398611 -0.642117 -2.269206 -0.376314 -0.414220 2.071353 0.055785 1.039994 -12.048815 -2.390357 0.000000 0.000000 0.000000 -6.086489 16.006389 -16.344356 -5.354768 16.614729 -0.098946 -175.455119 -81.403166 -162.569180 0.000000 0.000000 0.000000 5.069223 12.015183 1.267912 -1.951879 13.469870 17.743543 166.073183 -71.410024 171.147499 0.000000 0.000000 0.000000 -1.045288 0.985233 -1.595316 -1.549088 12.626301 -0.932080 -0.595408 -1.062990 -0.336178 0.000000 0.000000 0.000000 3.324969 -12.068958 1.812247 4.439568 16.335960 -0.480412 5.337643 -5.855785 2.286648 0.000000 0.000000 0.000000 
-3375.873535 958.227722 1142.848022 11.386439 4.458223 2.855329 -0.850226 10.887289 1.063268 -0.819682 -2.141102 -0.259458 -0.691735 1.976713 0.013680 0.882774 -11.272971 -1.967598 0.000000 0.000000 0.000000 -6.917504 16.369187 -16.275453 -6.485438 16.152160 -1.766316 -175.001509 -73.392465 -159.580535 0.000000 0.000000 0.000000 5.276881 11.204825 1.730135 -1.854321 12.769691 17.728376 165.610570 -68.491019 172.022419 0.000000 0.000000 0.000000 -0.828940 0.313165 -2.252405 -1.561150 16.118020 -0.241413 -0.030709 -1.310178 -0.106596 0.000000 0.000000 0.000000 3.002195 -10.510964 1.622374 4.024802 12.949554 -0.242664 4.528316 -3.910731 1.979922 0.000000 0.000000 0.000000 
-3360.725098 959.719055 1140.234009 11.826102 4.132933 2.923172 -0.769098 10.245054 0.806601 -1.034621 -1.979505 -0.200872 -1.037288 1.840360 -0.008087 0.692414 -10.473118 -1.393423 0.000000 0.000000 0.000000 -7.456659 16.213366 -15.822379 -7.756554 15.141841 -3.206363 -174.346576 -67.028217 -157.008293 0.000000 0.000000 0.000000 5.419226 10.028314 2.296673 -1.553198 11.721437 17.582172 165.319162 -66.519065 171.946653 0.000000 0.000000 0.000000 -0.540238 -0.619762 -2.966661 -1.517664 20.188112 0.745738 0.864654 -1.546247 0.256697 0.000000 0.000000 0.000000 2.607027 -8.978495 1.700249 3.539908 10.334571 -0.118556 3.820007 -2.427188 1.696938 0.000000 0.000000 0.000000 
-3346.560059 961.105652 1135.406006 12.104942 3.782135 2.762200 -0.751890 9.700170 0.733369 -1.322188 -1.807825 -0.216972 -1.471102 1.696999 -0.010599 0.470030 -9.670370 -0.661507 0.000000 0.000000 0.000000 -7.785397 15.489675 -14.855158 -8.675924 13.740387 -4.301134 -173.513507 -63.305463 -155.033470 0.000000 0.000000 0.000000 5.450923 8.538557 2.916630 -0.884952 10.331577 17.453105 165.324800 -65.447332 170.362512 0.000000 0.000000 0.000000 -0.147883 -2.036721 -3.737359 -1.378306 25.031787 2.121388 2.266958 -1.443059 0.839082 0.000000 0.000000 0.000000 2.489823 -7.721044 2.149655 3.397864 9.229402 -0.102381 3.618527 -2.438497 1.599997 0.000000 0.000000 0.000000 
-3332.937256 962.417297 1128.494995 12.297318 3.364236 2.514747 -0.800468 9.212372 0.574514 -1.688964 -1.612932 -0.168862 -1.993989 1.526677 -0.018320 0.193283 -8.779216 0.266171 0.000000 0.000000 0.000000 -8.028038 14.321593 -13.135258 -9.156851 12.088935 -5.415150 -172.577018 -61.508974 -153.183271 0.000000 0.000000 0.000000 5.387473 6.691947 3.403962 0.216720 8.577574 17.603193 165.662414 -65.228996 167.401772 0.000000 0.000000 0.000000 0.278175 -3.795354 -4.735564 -1.161510 30.495472 3.859614 4.324853 -0.725212 1.701011 0.000000 0.000000 0.000000 2.484345 -6.588519 2.816913 3.422707 9.321966 -0.204321 3.677628 -3.526396 1.588970 0.000000 0.000000 0.000000 
